<svg width="477" height="122" viewBox="0 0 477 122" fill="none" xmlns="http://www.w3.org/2000/svg">
<path d="M25.2228 57.583C25.2229 56.9056 25.3568 56.2348 25.6169 55.6093C25.877 54.9837 26.258 54.4157 26.7382 53.9378C27.2184 53.4599 27.7883 53.0816 28.4151 52.8246C29.0419 52.5676 29.7133 52.4369 30.3908 52.44L38.9588 52.468C40.3249 52.468 41.6351 53.0107 42.6011 53.9767C43.5671 54.9427 44.1098 56.2529 44.1098 57.619V90.0191C45.0748 89.7331 46.3098 89.428 47.6688 89.108C48.6103 88.8865 49.4494 88.3535 50.05 87.5953C50.6506 86.8371 50.9776 85.8983 50.9778 84.931V44.744C50.9778 43.3778 51.5204 42.0675 52.4864 41.1014C53.4524 40.1352 54.7626 39.5923 56.1288 39.592H64.7228C66.089 39.5923 67.3992 40.1352 68.3651 41.1014C69.3311 42.0675 69.8738 43.3778 69.8738 44.744V82.044C69.8738 82.044 72.0238 81.174 74.1168 80.29C74.8945 79.9611 75.5582 79.4104 76.025 78.7067C76.4918 78.003 76.7411 77.1775 76.7418 76.333V31.866C76.7418 30.5001 77.2843 29.1901 78.2501 28.2241C79.2159 27.2581 80.5258 26.7153 81.8918 26.715H90.4768C91.842 26.7164 93.1509 27.2596 94.1158 28.2255C95.0808 29.1914 95.6228 30.5008 95.6228 31.866V68.483C103.066 63.089 110.609 56.601 116.595 48.8C117.463 47.6677 118.038 46.338 118.268 44.9295C118.497 43.521 118.375 42.0776 117.911 40.728C115.14 32.7562 110.735 25.4505 104.979 19.2786C99.2225 13.1067 92.241 8.20438 84.4813 4.88543C76.7216 1.56649 68.3544 -0.0960273 59.9153 0.00428347C51.4762 0.104594 43.1509 1.96552 35.4723 5.46797C27.7936 8.97042 20.9307 14.0373 15.3226 20.3443C9.71457 26.6513 5.48488 34.0596 2.90423 42.0951C0.323578 50.1305 -0.551199 58.6163 0.33587 67.0093C1.22294 75.4022 3.85232 83.5176 8.05576 90.836C8.7881 92.0985 9.86553 93.1258 11.1615 93.7972C12.4574 94.4685 13.918 94.7561 15.3718 94.626C16.9958 94.483 19.0178 94.281 21.4218 93.999C22.468 93.88 23.434 93.3803 24.1356 92.5951C24.8373 91.8099 25.2257 90.7941 25.2268 89.741V57.583" fill="white"/>
<path d="M25.0398 109.544C34.089 116.127 44.783 120.079 55.9386 120.961C67.0942 121.844 78.2765 119.623 88.2484 114.545C98.2202 109.467 106.593 101.729 112.44 92.1878C118.287 82.6465 121.381 71.6735 121.379 60.4831C121.379 59.0831 121.314 57.7051 121.221 56.3311C99.0578 89.3861 58.1358 104.839 25.0398 109.544" fill="#F0B90B"/>
<path d="M173.583 59.363C176.833 59.9599 179.766 61.6888 181.863 64.243C183.953 66.7561 185.074 69.9347 185.023 73.203C185.023 77.8964 183.449 81.6164 180.303 84.363C177.156 87.1097 172.596 88.483 166.623 88.483H144.143V32.003H166.223C171.876 32.003 176.209 33.2697 179.223 35.803C182.236 38.3364 183.743 41.8164 183.743 46.243C183.888 49.3795 182.893 52.4625 180.943 54.923C179.035 57.1615 176.452 58.7197 173.583 59.363ZM153.263 56.323H164.543C167.743 56.323 170.183 55.5764 171.863 54.083C172.716 53.292 173.383 52.3227 173.819 51.2442C174.255 50.1657 174.447 49.0044 174.383 47.8431C174.442 46.6941 174.247 45.5463 173.811 44.4815C173.375 43.4167 172.71 42.4612 171.863 41.683C170.183 40.1897 167.636 39.443 164.223 39.443H153.263V56.323ZM164.783 80.963C168.249 80.963 170.929 80.1764 172.823 78.6031C173.772 77.7951 174.521 76.7794 175.014 75.6348C175.506 74.4902 175.728 73.2474 175.663 72.003C175.725 70.7494 175.497 69.4984 174.998 68.3469C174.498 67.1954 173.74 66.1744 172.783 65.363C170.863 63.763 168.169 62.963 164.703 62.963H153.263V80.963H164.783ZM208.063 43.843C213.236 43.843 217.383 45.163 220.503 47.803C223.658 50.5052 225.696 54.2828 226.223 58.403H217.583C217.293 56.1602 216.199 54.099 214.503 52.603C212.625 51.068 210.245 50.284 207.823 50.403C205.909 50.2805 204.016 50.864 202.503 52.0431C201.878 52.596 201.385 53.2817 201.06 54.05C200.734 54.8183 200.585 55.6496 200.623 56.483C200.598 57.1076 200.706 57.7302 200.941 58.3096C201.175 58.889 201.53 59.4117 201.983 59.8431C202.964 60.7405 204.122 61.4218 205.383 61.8431C207.287 62.4754 209.223 63.0095 211.183 63.443C213.915 64.0216 216.602 64.797 219.223 65.7631C221.276 66.5628 223.093 67.8702 224.503 69.563C226.064 71.5818 226.845 74.0953 226.703 76.643C226.749 78.3604 226.393 80.0647 225.664 81.6203C224.934 83.1758 223.852 84.5396 222.503 85.6031C219.703 87.8964 215.929 89.043 211.183 89.043C205.689 89.043 201.249 87.763 197.863 85.203C196.176 83.9181 194.765 82.3068 193.713 80.4651C192.662 78.6235 191.992 76.5891 191.743 74.483H200.623C200.729 75.6234 201.068 76.73 201.618 77.7344C202.168 78.7389 202.919 79.6198 203.823 80.323C205.944 81.8978 208.544 82.6893 211.183 82.563C213.059 82.6701 214.906 82.0547 216.343 80.843C216.954 80.2962 217.438 79.6229 217.763 78.87C218.088 78.1172 218.244 77.3027 218.223 76.483C218.256 75.8027 218.146 75.123 217.897 74.4887C217.649 73.8544 217.269 73.2799 216.783 72.803C215.746 71.8505 214.519 71.128 213.183 70.683C211.243 70.0426 209.266 69.5217 207.263 69.123C204.619 68.5381 202.014 67.79 199.463 66.883C197.467 66.1392 195.701 64.884 194.343 63.243C192.84 61.2904 192.088 58.8633 192.223 56.403C192.174 54.6679 192.527 52.945 193.256 51.3695C193.985 49.7941 195.069 48.409 196.423 47.323C199.223 45.003 203.103 43.843 208.063 43.843ZM255.423 43.843C261.129 43.843 265.849 45.3497 269.583 48.3631C273.355 51.4432 275.838 55.824 276.543 60.643H266.863C266.442 58.0569 265.055 55.7268 262.983 54.123C260.747 52.4918 258.028 51.6605 255.263 51.763C253.616 51.7235 251.98 52.0348 250.463 52.6762C248.945 53.3175 247.582 54.2743 246.463 55.483C244.116 57.963 242.943 61.603 242.943 66.403C242.943 71.203 244.116 74.8564 246.463 77.363C247.576 78.582 248.937 79.5484 250.455 80.1969C251.973 80.8455 253.613 81.1613 255.263 81.123C258.034 81.2252 260.758 80.3786 262.983 78.723C265.051 77.0987 266.436 74.7581 266.863 72.163H276.543C275.832 76.9912 273.352 81.3826 269.583 84.483C265.849 87.523 261.129 89.043 255.423 89.043C251.479 89.1217 247.581 88.1851 244.103 86.323C240.825 84.512 238.143 81.7885 236.383 78.483C234.442 74.7584 233.478 70.6019 233.583 66.403C233.484 62.2304 234.448 58.1011 236.383 54.403C238.143 51.0976 240.825 48.3741 244.103 46.5631C247.581 44.701 251.479 43.7644 255.423 43.843ZM322.463 73.4431C322.481 76.1468 321.791 78.8082 320.463 81.163C319.039 83.623 316.925 85.6116 314.383 86.883C311.276 88.4102 307.843 89.1518 304.383 89.043C300.837 89.1023 297.319 88.4069 294.063 87.003C291.178 85.7654 288.668 83.7932 286.783 81.2831C284.962 78.8085 283.88 75.868 283.663 72.803H293.423C293.673 75.2237 294.796 77.4704 296.583 79.1231C297.582 80.0277 298.75 80.7265 300.02 81.1795C301.29 81.6325 302.636 81.8308 303.983 81.7631C305.151 81.8369 306.323 81.6768 307.429 81.2921C308.534 80.9075 309.552 80.3061 310.423 79.523C311.18 78.7723 311.773 77.8729 312.166 76.8816C312.558 75.8903 312.741 74.8285 312.703 73.7631C312.775 71.9468 312.177 70.1673 311.023 68.7631C309.882 67.4406 308.461 66.3886 306.863 65.683C305.209 64.9364 302.943 64.083 300.063 63.123C297.113 62.2284 294.238 61.105 291.463 59.7631C289.217 58.615 287.282 56.9407 285.823 54.8831C284.175 52.4016 283.362 49.4587 283.503 46.483C283.443 43.6537 284.223 40.87 285.743 38.483C287.313 36.1248 289.537 34.276 292.143 33.163C295.172 31.8582 298.445 31.2172 301.743 31.283C307.503 31.283 312.076 32.6697 315.463 35.443C317.115 36.7704 318.48 38.4189 319.477 40.2889C320.474 42.1589 321.082 44.2117 321.263 46.323H311.423C311.062 44.213 310.006 42.2841 308.423 40.843C306.577 39.2442 304.181 38.4265 301.743 38.5631C299.52 38.4522 297.333 39.1483 295.583 40.523C294.794 41.2259 294.175 42.0989 293.773 43.0759C293.372 44.053 293.197 45.1086 293.263 46.163C293.197 47.8918 293.766 49.5848 294.863 50.923C295.967 52.204 297.349 53.2164 298.903 53.8831C300.529 54.6031 302.756 55.443 305.583 56.403C308.589 57.3004 311.518 58.4374 314.343 59.803C316.641 60.9767 318.618 62.6929 320.103 64.803C321.783 67.361 322.61 70.386 322.463 73.4431ZM351.183 43.843C356.889 43.843 361.609 45.3497 365.343 48.3631C369.115 51.4432 371.598 55.824 372.303 60.643H362.623C362.202 58.0569 360.815 55.7268 358.743 54.123C356.507 52.4918 353.788 51.6605 351.023 51.763C349.376 51.7235 347.74 52.0348 346.223 52.6762C344.705 53.3175 343.342 54.2743 342.223 55.483C339.876 57.963 338.703 61.603 338.703 66.403C338.703 71.203 339.876 74.8564 342.223 77.363C343.336 78.582 344.697 79.5484 346.215 80.1969C347.733 80.8455 349.373 81.1613 351.023 81.123C353.794 81.2252 356.518 80.3786 358.743 78.723C360.811 77.0987 362.196 74.7581 362.623 72.163H372.303C371.592 76.9912 369.111 81.3826 365.343 84.483C361.609 87.523 356.889 89.043 351.183 89.043C347.239 89.1217 343.341 88.1851 339.863 86.323C336.585 84.512 333.903 81.7885 332.143 78.483C330.202 74.7584 329.238 70.6019 329.343 66.403C329.244 62.2304 330.208 58.1011 332.143 54.403C333.903 51.0976 336.585 48.3741 339.863 46.5631C343.341 44.701 347.239 43.7644 351.183 43.843ZM398.783 43.843C402.421 43.7367 406.002 44.7718 409.023 46.803C411.803 48.7151 413.904 51.4603 415.023 54.643V44.403H424.143V88.483H415.023V78.243C413.904 81.4258 411.803 84.171 409.023 86.083C406.002 88.1143 402.421 89.1494 398.783 89.043C395.171 89.1039 391.612 88.1624 388.503 86.323C385.434 84.4494 382.975 81.7261 381.423 78.483C379.638 74.7116 378.761 70.5744 378.863 66.403C378.766 62.2579 379.643 58.1479 381.423 54.403C382.975 51.16 385.434 48.4367 388.503 46.5631C391.612 44.7237 395.171 43.7822 398.783 43.843V43.843ZM401.583 51.8431C399.78 51.7621 397.981 52.0662 396.305 52.7353C394.629 53.4043 393.114 54.4228 391.863 55.7231C389.436 58.3097 388.223 61.8697 388.223 66.403C388.223 70.9364 389.436 74.4964 391.863 77.083C393.114 78.3833 394.629 79.4018 396.305 80.0708C397.981 80.7399 399.78 81.044 401.583 80.963C403.997 81.0015 406.376 80.379 408.463 79.163C410.504 77.9484 412.166 76.1893 413.263 74.083C414.48 71.7097 415.085 69.0697 415.023 66.403C415.076 63.7501 414.471 61.1253 413.263 58.7631C412.175 56.6401 410.511 54.8659 408.463 53.643C406.376 52.4271 403.997 51.8046 401.583 51.8431V51.8431ZM459.743 43.683C464.863 43.683 468.97 45.3364 472.063 48.643C475.156 51.9497 476.703 56.6697 476.703 62.803V88.483H467.583V63.7631C467.583 59.8164 466.57 56.763 464.543 54.603C463.465 53.504 462.166 52.6467 460.731 52.0881C459.297 51.5295 457.76 51.2824 456.223 51.3631C454.606 51.2919 452.992 51.5654 451.489 52.1654C449.985 52.7654 448.627 53.6781 447.503 54.8431C445.316 57.163 444.223 60.563 444.223 65.043V88.483H435.103V44.403H444.223V54.083C445.277 50.9305 447.363 48.225 450.143 46.403C453.002 44.5647 456.344 43.6179 459.743 43.683Z" fill="white"/>
</svg>
