<svg xmlns="http://www.w3.org/2000/svg" viewBox="0 0 712.83 121.05"><defs><style>.cls-1{fill:#fff;}.cls-2,.cls-5{fill:#633001;}.cls-2,.cls-4{fill-rule:evenodd;}.cls-3{fill:#fedc90;}.cls-4{fill:#d1884f;}</style></defs><title>pancakeres</title><g id="katman_2" data-name="katman 2"><g id="katman_1-2" data-name="katman 1"><path class="cls-1" d="M142.15,90.38a4.82,4.82,0,0,1-3.48-1,4.65,4.65,0,0,1-.94-3.23V36.89a4.43,4.43,0,0,1,1-3.24,4.49,4.49,0,0,1,3.4-1.1H163q11.91,0,17.52,5t5.61,15q0,9.87-5.61,14.89T163,72.35h-8.08V86.13a4.42,4.42,0,0,1-1,3.23,4.84,4.84,0,0,1-3.49,1ZM161.63,60A7.3,7.3,0,0,0,167,58.15q1.95-1.87,1.95-5.62T167,46.84A7.26,7.26,0,0,0,161.63,45h-6.72V60Z"/><path class="cls-1" d="M206.21,91.66q-8,0-12.84-5.11T188.6,72a23.68,23.68,0,0,1,3.24-12.5,21.88,21.88,0,0,1,9.27-8.25,30.85,30.85,0,0,1,13.86-3,40.3,40.3,0,0,1,11.39,1.45,33.44,33.44,0,0,1,9.19,4v34a2.79,2.79,0,0,1-.6,2.13,3.86,3.86,0,0,1-2.38.51H223.9a3.31,3.31,0,0,1-1.45-.25,2.61,2.61,0,0,1-.85-1l-1.1-2.55a14.36,14.36,0,0,1-6,3.83A23.84,23.84,0,0,1,206.21,91.66Zm6.38-11.57a7.64,7.64,0,0,0,5.18-1.62,5.71,5.71,0,0,0,1.88-4.59V60.61a9.57,9.57,0,0,0-4.09-.76A9.1,9.1,0,0,0,208.33,63q-2.62,3.14-2.63,8.84Q205.7,80.09,212.59,80.09Z"/><path class="cls-1" d="M247.38,90.38a4.82,4.82,0,0,1-3.48-1,4.42,4.42,0,0,1-1-3.23V52.19a3,3,0,0,1,.51-2,3.47,3.47,0,0,1,2.38-.59h8.76a2.75,2.75,0,0,1,1.53.34,1.15,1.15,0,0,1,.68,1l.43,2.55a16.3,16.3,0,0,1,6.2-3.74,24.74,24.74,0,0,1,8.68-1.45q6.88,0,11.14,3.91c2.83,2.56,4.25,6.35,4.25,11.4V86.13a4.42,4.42,0,0,1-1,3.23c-.62.68-1.76,1-3.4,1h-8.25a5.16,5.16,0,0,1-3.57-1,4.42,4.42,0,0,1-1-3.23V64.7A5,5,0,0,0,269.07,61a4.76,4.76,0,0,0-3.49-1.11,6,6,0,0,0-4.08,1.36A4.92,4.92,0,0,0,260.06,65V86.13a4.42,4.42,0,0,1-1,3.23,4.54,4.54,0,0,1-3.41,1Z"/><path class="cls-1" d="M317.5,91.66q-11.89,0-18.37-5.53t-6.46-16.08a21.55,21.55,0,0,1,3-11.39A19.82,19.82,0,0,1,304.24,51a30.89,30.89,0,0,1,13.43-2.72,37.46,37.46,0,0,1,9.87,1.11,21.72,21.72,0,0,1,7.23,3.4,1.78,1.78,0,0,1,.93,1.53,3.69,3.69,0,0,1-.68,1.79l-3.48,6c-.4.79-.88,1.19-1.45,1.19a3.72,3.72,0,0,1-1.62-.69,20.22,20.22,0,0,0-4.33-2.12,15.36,15.36,0,0,0-4.94-.68,9.15,9.15,0,0,0-6.88,2.72,10.46,10.46,0,0,0-2.56,7.48c0,3.24.88,5.73,2.64,7.49a10,10,0,0,0,7.23,2.55,15,15,0,0,0,4.93-.77,24.33,24.33,0,0,0,4.51-2.12,4.1,4.1,0,0,1,1.7-.68c.51,0,1,.39,1.36,1.19L336,84.26a3.29,3.29,0,0,1,.42,1.36,1.84,1.84,0,0,1-1,1.44,27,27,0,0,1-7.82,3.41A37,37,0,0,1,317.5,91.66Z"/><path class="cls-1" d="M358,91.66q-8,0-12.84-5.11T340.34,72a23.77,23.77,0,0,1,3.23-12.5,22,22,0,0,1,9.27-8.25,30.92,30.92,0,0,1,13.87-3,40.35,40.35,0,0,1,11.39,1.45,33.44,33.44,0,0,1,9.19,4v34a2.79,2.79,0,0,1-.6,2.13,3.86,3.86,0,0,1-2.38.51h-8.67a3.31,3.31,0,0,1-1.45-.25,2.61,2.61,0,0,1-.85-1l-1.11-2.55a14.26,14.26,0,0,1-6,3.83A23.84,23.84,0,0,1,358,91.66Zm6.38-11.57a7.64,7.64,0,0,0,5.18-1.62,5.71,5.71,0,0,0,1.87-4.59V60.61a9.49,9.49,0,0,0-4.08-.76A9.1,9.1,0,0,0,360.07,63q-2.62,3.14-2.63,8.84Q357.44,80.09,364.33,80.09Z"/><path class="cls-1" d="M440.71,87.15a2.24,2.24,0,0,1,.6,1.53A1.74,1.74,0,0,1,440.8,90a2.09,2.09,0,0,1-1.36.42H426.25a7.06,7.06,0,0,1-1.78-.17,3.84,3.84,0,0,1-1.11-.94L411.8,73.54V86.13a4.38,4.38,0,0,1-1,3.23,4.82,4.82,0,0,1-3.48,1H399a4.84,4.84,0,0,1-3.49-1,4.7,4.7,0,0,1-.93-3.23V36.89a4.43,4.43,0,0,1,1-3.24,4.48,4.48,0,0,1,3.4-1.1h8.25a4.61,4.61,0,0,1,3.48,1.1,4.39,4.39,0,0,1,1,3.24V65.38L423,50.75a2.75,2.75,0,0,1,1.11-.94,4.74,4.74,0,0,1,1.78-.25H439.1a1.56,1.56,0,0,1,1.27.51,1.46,1.46,0,0,1,.51,1.19,2.28,2.28,0,0,1-.59,1.53L425.74,69.46Z"/><path class="cls-1" d="M468.33,91.66a32.33,32.33,0,0,1-12.76-2.39,19.65,19.65,0,0,1-8.76-7.14,20.29,20.29,0,0,1-3.23-11.65q0-10.8,6.12-16.5t17.61-5.7q11.22,0,17,5.62t5.87,15.39c0,2.83-1.24,4.25-3.74,4.25h-26.7a6.46,6.46,0,0,0,2.72,5.61c1.87,1.31,4.67,2,8.42,2a23.9,23.9,0,0,0,5.78-.59,24.3,24.3,0,0,0,4.76-2,4.91,4.91,0,0,1,1.36-.43c.51,0,.94.34,1.28,1L487,84.6a3.32,3.32,0,0,1,.43,1.27,1.85,1.85,0,0,1-1,1.45,24.14,24.14,0,0,1-7.91,3.32A45.26,45.26,0,0,1,468.33,91.66Zm6.55-26.54a6.61,6.61,0,0,0-1.88-5q-1.86-1.79-5.61-1.78a7.94,7.94,0,0,0-5.7,1.87,6.34,6.34,0,0,0-1.95,4.93Z"/><path class="cls-1" d="M519.33,91.66a61.25,61.25,0,0,1-13.52-1.45A30.52,30.52,0,0,1,495.52,86c-1-.63-1.45-1.28-1.45-2a2.63,2.63,0,0,1,.51-1.44l4.17-6.64c.45-.68.91-1,1.36-1a3.55,3.55,0,0,1,1.45.6,31.42,31.42,0,0,0,7.14,2.89,29.47,29.47,0,0,0,7.91,1.1c2.66,0,4.62-.39,5.87-1.19a4.14,4.14,0,0,0,2-3.82,4.58,4.58,0,0,0-2.13-4,40.83,40.83,0,0,0-7.74-3.66,47.29,47.29,0,0,1-13.44-7.23,13.81,13.81,0,0,1-4.76-11.05q0-8.43,6-12.84t16.07-4.43a48.18,48.18,0,0,1,11.91,1.28,23.3,23.3,0,0,1,8.5,3.74c1,.74,1.45,1.42,1.45,2a2.53,2.53,0,0,1-.51,1.36l-4.17,6.64c-.51.68-1,1-1.36,1a3.6,3.6,0,0,1-1.45-.6,20.92,20.92,0,0,0-11.73-3.23,10.89,10.89,0,0,0-5.61,1.19,4.21,4.21,0,0,0-2,3.91,4.52,4.52,0,0,0,1,3.06,9.54,9.54,0,0,0,2.72,2.13c1.19.57,3,1.3,5.44,2.21l1.62.6a57.09,57.09,0,0,1,9.86,4.76,15.11,15.11,0,0,1,5.53,5.53,16,16,0,0,1,1.88,8.16,14.61,14.61,0,0,1-5.7,12.08Q530.29,91.65,519.33,91.66Z"/><path class="cls-1" d="M559.68,90.38a3.74,3.74,0,0,1-1.95-.42,2.82,2.82,0,0,1-1-1.71l-11-36.74a2.46,2.46,0,0,1-.17-.76c0-.79.57-1.19,1.7-1.19H558.5a2.52,2.52,0,0,1,1.61.42,1.78,1.78,0,0,1,.68,1.19l4.59,19.31,5.78-15.56a3.58,3.58,0,0,1,.86-1.37,2.68,2.68,0,0,1,1.7-.42h5.35a2.32,2.32,0,0,1,1.62.42,3,3,0,0,1,.94,1.37l5.69,15.56L592,51.17a2.43,2.43,0,0,1,.68-1.19,2.19,2.19,0,0,1,1.53-.42h11.31c1.14,0,1.71.4,1.71,1.19a2.8,2.8,0,0,1-.17.76L596,88.25A2.82,2.82,0,0,1,595,90a3.29,3.29,0,0,1-1.87.42h-8.34A3.1,3.1,0,0,1,583,90a3.91,3.91,0,0,1-1-1.71l-5.61-15.39-5.62,15.39a3.16,3.16,0,0,1-1,1.71,3.11,3.11,0,0,1-1.79.42Z"/><path class="cls-1" d="M628.78,91.66c-5.32,0-9.61-1.7-12.84-5.11s-4.76-8.3-4.76-14.54a23.77,23.77,0,0,1,3.23-12.5,21.88,21.88,0,0,1,9.27-8.25,30.91,30.91,0,0,1,13.86-3,40.42,40.42,0,0,1,11.4,1.45,33.57,33.57,0,0,1,9.19,4v34a2.79,2.79,0,0,1-.6,2.13,3.88,3.88,0,0,1-2.38.51h-8.68a3.29,3.29,0,0,1-1.44-.25,2.61,2.61,0,0,1-.85-1l-1.11-2.55a14.32,14.32,0,0,1-6,3.83A23.9,23.9,0,0,1,628.78,91.66Zm6.38-11.57a7.68,7.68,0,0,0,5.19-1.62,5.71,5.71,0,0,0,1.87-4.59V60.61a9.56,9.56,0,0,0-4.08-.76A9.08,9.08,0,0,0,630.91,63q-2.64,3.14-2.64,8.84Q628.27,80.09,635.16,80.09Z"/><path class="cls-1" d="M669.87,107.56a4.82,4.82,0,0,1-3.48-1,4.7,4.7,0,0,1-.94-3.23V54.58a33.66,33.66,0,0,1,9.61-4.51,40.79,40.79,0,0,1,12.08-1.79q25.68,0,25.69,21.77,0,9.87-5.45,15.74T692,91.66a21.8,21.8,0,0,1-5.44-.68,13.51,13.51,0,0,1-4.26-1.88v14.21a4.42,4.42,0,0,1-1,3.23,4.84,4.84,0,0,1-3.49,1Zm18.46-27.39a6.07,6.07,0,0,0,5.45-2.72A13.34,13.34,0,0,0,695.64,70q0-5.53-2.2-7.74c-1.42-1.53-3.64-2.3-6.64-2.3a11.34,11.34,0,0,0-4.59.77V74.22a5.82,5.82,0,0,0,1.61,4.42A6.32,6.32,0,0,0,688.33,80.17Z"/><path class="cls-2" d="M21.49,18.92A16,16,0,1,1,53.19,16v19.7q3.31-.22,6.72-.23c2.19,0,4.34.07,6.47.22V16a16,16,0,1,1,31.7,2.93L93.75,42.09C108.6,48.57,119.83,59.83,119.83,74v8.56c0,11.64-7.7,21.38-18.46,28s-25.51,10.57-41.46,10.57-30.61-3.94-41.45-10.57S0,94.17,0,82.53V74C0,59.9,11.11,48.69,25.83,42.19ZM88.21,45.13,93.27,18a11.09,11.09,0,1,0-22-2V41.07c-1.61-.21-3.24-.37-4.89-.49q-3.18-.22-6.47-.23c-2.27,0-4.52.08-6.72.25-1.66.12-3.29.29-4.89.5V16a11.09,11.09,0,1,0-22,2l5.07,27.2C15.5,51.12,4.89,61.79,4.89,74v8.56c0,18.57,24.63,33.63,55,33.63s55-15.06,55-33.63V74C114.93,61.73,104.22,51,88.21,45.13Z"/><path class="cls-3" d="M114.93,82.53c0,18.57-24.63,33.63-55,33.63s-55-15.06-55-33.63V74h110Z"/><path class="cls-4" d="M26.29,18a11.1,11.1,0,1,1,22-2V41.1a90.11,90.11,0,0,1,23,0V16a11.09,11.09,0,1,1,22,2L88.21,45.13c16,5.88,26.72,16.6,26.72,28.84,0,18.57-24.63,33.63-55,33.63S4.89,92.54,4.89,74c0-12.18,10.61-22.85,26.48-28.75Z"/><path class="cls-5" d="M44.63,71.53c0,5.06-2.74,9.17-6.11,9.17s-6.12-4.11-6.12-9.17,2.74-9.17,6.12-9.17S44.63,66.46,44.63,71.53Z"/><path class="cls-5" d="M86.81,71.53c0,5.06-2.73,9.17-6.11,9.17s-6.11-4.11-6.11-9.17,2.73-9.17,6.11-9.17S86.81,66.46,86.81,71.53Z"/></g></g></svg>