<svg xmlns="http://www.w3.org/2000/svg" viewBox="0 0 361.48 87.84"><defs><style>.cls-1{fill:#fff;}.cls-2{fill:none;stroke:#3375bb;stroke-linecap:round;stroke-linejoin:round;stroke-width:5px;}</style></defs><title>trustwalletres</title><g id="katman_2" data-name="katman 2"><g id="katman_1-2" data-name="katman 1"><path class="cls-1" d="M114.84,34.28H104.72v-6h27.55v6H122.15V59.93h-7.31Zm24.36,4.56a8,8,0,0,1,3.38-2.67,12.92,12.92,0,0,1,5-.9v6.51c-.78-.07-1.31-.1-1.58-.1a6.41,6.41,0,0,0-4.74,1.72,6.78,6.78,0,0,0-1.72,5.06V59.93h-7V35.63h6.73Zm34.48-3.21v24.3H167V57a9.75,9.75,0,0,1-3.34,2.44,10.84,10.84,0,0,1-4.2.81,10.39,10.39,0,0,1-7.59-2.75c-1.86-1.84-2.8-4.57-2.8-8.18V35.63h7.05V48.32c0,3.92,1.64,5.87,4.92,5.87a5.32,5.32,0,0,0,4.06-1.62,7,7,0,0,0,1.54-4.92v-12Zm12,24.66a24.4,24.4,0,0,1-5.91-.72,15.92,15.92,0,0,1-4.61-1.9l2.35-5.06a14.87,14.87,0,0,0,3.93,1.72A17,17,0,0,0,186,55q4.47,0,4.47-2.21a1.57,1.57,0,0,0-1.22-1.49,18.27,18.27,0,0,0-3.75-.77,35.89,35.89,0,0,1-4.92-1,7.69,7.69,0,0,1-3.39-2.08,6,6,0,0,1-1.4-4.24,6.62,6.62,0,0,1,1.31-4.06,8.61,8.61,0,0,1,3.88-2.8,16.64,16.64,0,0,1,6-1,22.64,22.64,0,0,1,5.11.59,14,14,0,0,1,4.24,1.53l-2.35,5a13.94,13.94,0,0,0-7-1.81,7.12,7.12,0,0,0-3.38.63,1.85,1.85,0,0,0-1.13,1.63,1.62,1.62,0,0,0,1.22,1.58,21.36,21.36,0,0,0,3.88.86,38.51,38.51,0,0,1,4.88,1.08,7.15,7.15,0,0,1,3.29,2,5.82,5.82,0,0,1,1.4,4.16,6.46,6.46,0,0,1-1.35,4,8.8,8.8,0,0,1-4,2.75A17.9,17.9,0,0,1,185.67,60.29Zm28.78-1.54a7.35,7.35,0,0,1-2.57,1.18,13.48,13.48,0,0,1-3.16.36A9.56,9.56,0,0,1,202,58.08q-2.36-2.22-2.35-6.51v-10h-3.75V36.17h3.75V30.26h7v5.91h6.06v5.42h-6.06v9.89a3.48,3.48,0,0,0,.77,2.4,3.07,3.07,0,0,0,2.26.81,4.53,4.53,0,0,0,2.84-.9Zm59.6-30.43L263.71,59.93h-7.86L248.9,38.52l-7.18,21.41H233.9L223.52,28.32h7.58l7.14,22.22,7.45-22.22h6.77l7.23,22.4,7.36-22.4Zm8.87,7q5.64,0,8.67,2.71c2,1.78,3,4.47,3,8.08V59.93H288v-3q-2,3.39-7.4,3.39a11.67,11.67,0,0,1-4.88-.95,7.23,7.23,0,0,1-3.12-2.62,6.83,6.83,0,0,1-1.08-3.79,6.34,6.34,0,0,1,2.53-5.33c1.71-1.29,4.35-1.94,7.9-1.94h5.6a4.41,4.41,0,0,0-1.4-3.52,6,6,0,0,0-4.2-1.27,12.16,12.16,0,0,0-3.84.63A10,10,0,0,0,275,43.13l-2.53-4.92A15.21,15.21,0,0,1,277.18,36,21.7,21.7,0,0,1,282.92,35.27Zm-.54,20.28a6.26,6.26,0,0,0,3.2-.81,4.67,4.67,0,0,0,2-2.49V49.77h-4.83q-4.33,0-4.34,2.84a2.61,2.61,0,0,0,1,2.17A5,5,0,0,0,282.38,55.55Zm15.9-29.13h7.05V59.93h-7.05Zm10.87,0h7.05V59.93h-7.05Zm34.68,21.45c0,.09-.05.72-.14,1.9H325.31a5.78,5.78,0,0,0,2.35,3.57,7.79,7.79,0,0,0,4.61,1.3,9.55,9.55,0,0,0,3.34-.54,8.38,8.38,0,0,0,2.75-1.8l3.75,4.06q-3.44,3.93-10,3.93a16.14,16.14,0,0,1-7.28-1.58,11.92,11.92,0,0,1-4.87-4.47,12.22,12.22,0,0,1-1.72-6.46,12.43,12.43,0,0,1,1.67-6.41,11.89,11.89,0,0,1,4.65-4.47,14.33,14.33,0,0,1,13.1-.09,11,11,0,0,1,4.51,4.42A12.82,12.82,0,0,1,343.83,47.87Zm-12.6-7.27a6,6,0,0,0-4,1.36,5.71,5.71,0,0,0-2,3.7h12a5.73,5.73,0,0,0-2-3.66A5.89,5.89,0,0,0,331.23,40.6Zm30.25,18.15a7.41,7.41,0,0,1-2.58,1.18,13.36,13.36,0,0,1-3.16.36A9.58,9.58,0,0,1,349,58.08q-2.34-2.22-2.34-6.51v-10h-3.75V36.17h3.75V30.26h7v5.91h6.05v5.42h-6.05v9.89a3.48,3.48,0,0,0,.77,2.4,3,3,0,0,0,2.25.81,4.54,4.54,0,0,0,2.85-.9Z"/><rect class="cls-1" width="87.84" height="87.84" rx="29.64"/><path class="cls-2" d="M44.17,20.64c7.94,6.63,17,6.22,19.65,6.22-.57,37.71-4.91,30.23-19.65,40.8-14.74-10.57-19-3.09-19.61-40.8C27.13,26.86,36.23,27.27,44.17,20.64Z"/></g></g></svg>